<svg width="274" height="68" viewBox="0 0 274 68" fill="none" xmlns="http://www.w3.org/2000/svg">
<path d="M3.12 57H13.584V45.72H25.92V36.888H13.584V30.6H26.928V21.144H3.12V57ZM44.5789 57.768C52.8829 57.768 59.3629 52.008 59.3629 43.416C59.3629 34.776 52.8829 29.16 44.5789 29.16C36.4189 29.16 29.7949 34.776 29.7949 43.416C29.7949 52.008 36.3709 57.768 44.5789 57.768ZM44.5789 48.648C42.3229 48.648 40.1629 46.728 40.1629 43.416C40.1629 40.104 42.3709 38.28 44.5789 38.28C46.8349 38.28 48.9949 40.104 48.9949 43.416C48.9949 46.728 46.8349 48.648 44.5789 48.648ZM76.6414 57.768C84.9454 57.768 91.4254 52.008 91.4254 43.416C91.4254 34.776 84.9454 29.16 76.6414 29.16C68.4814 29.16 61.8574 34.776 61.8574 43.416C61.8574 52.008 68.4334 57.768 76.6414 57.768ZM76.6414 48.648C74.3854 48.648 72.2254 46.728 72.2254 43.416C72.2254 40.104 74.4334 38.28 76.6414 38.28C78.8974 38.28 81.0574 40.104 81.0574 43.416C81.0574 46.728 78.8974 48.648 76.6414 48.648ZM105.968 57.768C109.904 57.768 112.544 55.656 114.08 53.496L115.04 57H123.776V18.312H113.504V33.288C112.064 30.984 109.424 29.16 105.824 29.16C99.5839 29.16 93.9199 34.776 93.9199 43.464C93.9199 52.152 99.7279 57.768 105.968 57.768ZM109.04 48.648C106.208 48.648 104.288 46.344 104.288 43.464C104.288 40.68 106.208 38.28 109.04 38.28C111.776 38.28 113.648 40.488 113.648 43.464C113.648 46.44 111.776 48.648 109.04 48.648ZM159.112 41.736H153.688V21.144H144.472L127.528 43.992V49.944H144.088V57H153.688V49.944H159.112V41.736ZM137.656 41.736V41.688L144.088 32.904V41.736H137.656ZM195.394 29.16C192.082 29.16 189.49 30.792 187.618 33.672C186.178 30.984 183.778 29.16 179.986 29.16C176.002 29.16 173.794 31.224 172.306 33.48H172.114L171.106 29.928H163.138V57H173.41V41.304C173.41 39.576 174.178 38.28 176.05 38.28C177.922 38.28 178.546 39.24 178.546 41.448V57H188.818V40.92C188.818 39.384 189.682 38.28 191.458 38.28C193.33 38.28 193.954 39.24 193.954 41.448V57H204.226V39.144C204.226 33.048 201.298 29.16 195.394 29.16ZM235.042 43.032C235.042 33.96 229.138 29.16 221.89 29.16C213.874 29.16 207.826 35.064 207.826 43.512C207.826 51.672 213.49 57.768 223.858 57.768C227.266 57.768 230.434 57.096 233.218 55.752V47.928C230.818 48.984 228.226 49.944 225.298 49.944C222.082 49.944 219.106 48.744 217.81 46.152H234.802C234.946 45.24 235.042 44.184 235.042 43.032ZM217.426 40.488C218.146 38.328 219.826 36.984 221.842 36.984C224.05 36.984 225.298 38.616 225.346 40.488H217.426Z" fill="white"/>
<path fill-rule="evenodd" clip-rule="evenodd" d="M272.445 6.01953C267.512 2.25508 259.813 0 251.951 0C242.248 0 234.306 3.43203 230.209 9.28086C228.287 12.0391 227.199 15.3902 227.029 19.0648C226.933 20.8933 227.077 22.8545 227.443 24.9167C228.422 25.1982 229.376 25.5597 230.294 26.0037C235.501 15.161 246.368 7.19648 258.645 7.19648C258.645 7.19648 245.761 10.5387 237.738 21.0773L237.406 21.4996C235.957 23.4068 234.65 25.5899 233.607 28.11C233.996 28.4276 234.374 28.765 234.739 29.1227C236.285 30.6374 237.514 32.4301 238.402 34.4499C240.088 34.62 241.647 34.7066 243.075 34.7066C248.34 34.7066 252.104 33.5387 254.952 31.1129C257.271 29.1014 258.591 26.3749 259.97 23.5236C260.082 23.2929 260.194 23.0613 260.307 22.8293L260.374 22.6872C262.612 17.9509 265.15 12.5816 272.355 8.44531C272.777 8.19375 273.02 7.78047 273.11 7.27734C273.029 6.77422 272.858 6.35195 272.445 6.01953Z" fill="white"/>
</svg>
